<?xml version="1.0" encoding="utf-8"?>
<!-- Generator: Adobe Illustrator 19.2.1, SVG Export Plug-In . SVG Version: 6.00 Build 0)  -->
<svg version="1.1" id="layer" xmlns="http://www.w3.org/2000/svg" xmlns:xlink="http://www.w3.org/1999/xlink" x="0px" y="0px"
	 viewBox="0 0 652 652" style="enable-background:new 0 0 652 652;" xml:space="preserve">
<style type="text/css">
	.st0{fill-rule:evenodd;clip-rule:evenodd;fill:#000041;}
	.st1{fill-rule:evenodd;clip-rule:evenodd;fill:#4A3B83;}
	.st2{fill-rule:evenodd;clip-rule:evenodd;fill:#A89DC3;}
	.st3{fill:#4A3B83;}
</style>
<path class="st0" d="M77.7,360.5c15.8,6,32.9-0.1,42.5-11.9c-8,8.2-21,12.4-32.8,7.7c-17.7-7.1-24-21.5-18.9-37.3
	c5-15.8,20.5-25.3,37.2-20c12.1,3.9,20.5,14,22.2,25.3c-1-15.1-11.7-29.2-27.7-34.3c-20.6-6.6-42.7,3.9-48.9,23.3
	C45.2,332.7,57.5,352.9,77.7,360.5"/>
<path class="st1" d="M114.1,321.5c1.2,17.7-12.3,33.2-30,34.4c-12.8,0.9-24.9-6.7-30.8-17.3c6.6,14.7,22.4,25.3,39.4,24.2
	c21.8-1.5,38.4-20.5,37-42.3C128.1,298.6,112.8,303.8,114.1,321.5"/>
<path class="st0" d="M75.9,375.9c22.6-1,41.2-16.2,47.8-36.5c-6.2,14.8-20.5,25.5-37.5,26.2c-23.5,1-43.5-17.3-44.5-40.7
	c-1-23.5,17.3-43.5,40.8-44.5c17-0.7,32.2,8.7,39.7,22.8c-8.3-19.7-28.2-33.2-50.8-32.2c-28.9,1.3-51.5,25.9-50.2,54.8
	C22.4,354.6,47,377.2,75.9,375.9"/>
<path class="st2" d="M133.6,316.9c-0.4-9.7-3.7-16.4-7-22.7c-1.6,2.3-3,4.2-4.3,6c-7.8-10.9-20.8-17.7-35.1-16.7
	c-17,1.2-30.9,13-35.4,28.5c4.4-11.3,15-19.6,27.9-20.5c38.2,0,34.8,35.7,25,51.1c-8.3,13.7-22.2,23.8-37.5,24.5
	c-18.4,0.8-34.6-9.4-42.7-25.1c8.4,21.6,30.4,36.6,54.8,35.5C110.6,376.2,135,349,133.6,316.9"/>
<path class="st1" d="M135.8,337.8c0.5-3.8,1-7.9,1.3-12.1c0-32.2-26.1-58.2-58.2-58.2c-27.9,0-51.5,19.6-56.8,45.9
	c6.6-20.5,24.3-35.2,45.2-35.2c26.6,0,48.1,23.7,48.1,52.9c0,5.6-3.2,48.2,35.8,44.2C148.6,374.5,130,374.7,135.8,337.8"/>
<path class="st3" d="M172.9,354.2h-10.2v-63.4h36.9c16.5,0,24.8,6.3,24.8,18.8c0,12.5-8.4,18.8-24.8,18.8h-26.7V354.2z M172.9,319
	h24.8c14.1,0,16.9-3.6,16.9-9.4c0-5.8-2.8-9.5-16.9-9.5h-24.8V319z"/>
<path class="st3" d="M296,354.2h-12.7l-19.5-26.8h-21.7v26.8H232v-63.4h36.4c20.9,0,25.3,10,25.3,18.3c0,11.5-9.1,16.7-17.8,17.9
	L296,354.2z M242.2,318h24.5c12.4,0,17.1-2.4,17.1-9c0-6.5-4.6-8.9-17.1-8.9h-24.5V318z"/>
<rect x="306" y="290.8" class="st3" width="10.2" height="63.4"/>
<polygon class="st3" points="394.9,354.2 385.5,354.2 339.1,302.5 339.1,354.2 329.2,354.2 329.2,290.8 341.7,290.8 384.7,338.3 
	384.7,290.8 394.9,290.8 "/>
<path class="st3" d="M439.7,355.7c-22.2,0-36-12.7-36-33.1c0-20.6,13.8-33.3,35.9-33.3c15.6,0,28,6.8,33,18.2l0.6,1.3l-9,4.1
	l-0.6-1.4c-4.7-10.9-15.6-13.2-23.9-13.2c-16.5,0-25.6,9-25.6,25.2c0,14.3,9.8,22.8,26.3,22.8c11.1,0,19.2-4.5,24.1-13.5l0.7-1.2
	l9.1,4.4l-0.7,1.3C467.1,349.7,456.1,355.7,439.7,355.7"/>
<polygon class="st3" points="539.7,354.2 481.8,354.2 481.8,290.8 538.7,290.8 538.7,300.2 492,300.2 492,316.6 531,316.6 531,326 
	492,326 492,344.8 539.7,344.8 "/>
<path class="st3" d="M600.6,354.2h-55.1v-7.4l0.2-0.3c1.5-2.9,6-11.7,22.2-19.8c2.9-1.5,5.6-2.7,8.1-3.8c9.5-4.3,14.7-6.7,14.7-14.1
	c0-6.3-6.4-10.5-15.9-10.5c-12.9,0-17.4,6.4-19.9,12l-0.6,1.3l-8.5-4l0.4-1.2c1-2.9,6.8-17.1,27.8-17.1c16.9,0,26.6,7,26.6,19.2
	c0,13.5-10.2,17.9-20,22.2l-0.5,0.2c-9.6,4.2-16.7,7.4-22.7,14.3h43.2V354.2z"/>
<path class="st3" d="M621.1,297.8c0,3.9-3.2,7-7.2,7c-4,0-7.2-3.1-7.2-7c0-3.9,3.2-7,7.2-7C617.9,290.8,621.1,293.9,621.1,297.8
	 M608.5,297.8c0,3.1,2.3,5.6,5.5,5.6c3,0,5.3-2.5,5.3-5.5c0-3.1-2.3-5.6-5.4-5.6C610.8,292.2,608.5,294.8,608.5,297.8 M612.8,301.4
	h-1.6v-7c0.6-0.1,1.5-0.2,2.7-0.2c1.3,0,1.9,0.2,2.4,0.6c0.4,0.3,0.7,0.8,0.7,1.5c0,0.9-0.6,1.4-1.4,1.7v0.1c0.7,0.2,1,0.8,1.2,1.7
	c0.2,1.1,0.4,1.4,0.5,1.7h-1.7c-0.2-0.3-0.3-0.9-0.5-1.7c-0.1-0.7-0.6-1.1-1.5-1.1h-0.8V301.4z M612.8,297.5h0.8
	c0.9,0,1.6-0.3,1.6-1c0-0.6-0.5-1.1-1.5-1.1c-0.4,0-0.7,0-0.9,0.1V297.5z"/>
</svg>
