<svg xmlns:xlink="http://www.w3.org/1999/xlink" xmlns="http://www.w3.org/2000/svg" focusable="false" viewBox="0 0 220.468 45.327" width="233"  height="48" ><g transform="translate(-6.544 -87.011)"><path d="M77.768,57.947c.223-1.577.431-3.245.521-4.974A23.993,23.993,0,0,0,37.2,36.167a22.808,22.808,0,0,0-6.638,16.8A22.991,22.991,0,0,0,54.516,74.316,23.128,23.128,0,0,0,70.929,66.36c1.776,4.214,5.476,7.8,13.142,7.025C83.036,73.046,75.375,73.107,77.768,57.947ZM39.029,52.593a17.61,17.61,0,0,1,12.929-17.71,8.442,8.442,0,0,1,6.183.687l.029.015c-.127.006-.252,0-.378.013A16.4,16.4,0,0,0,43.2,47.323c.015-.039.034-.077.05-.115-.081.217-.159.435-.23.658C40.47,55.856,45.55,64.138,53.859,67.3a14.731,14.731,0,0,0,2.711.742l-.025.013a6.788,6.788,0,0,1-5.213.522A17.607,17.607,0,0,1,39.029,52.593ZM57.868,65.576c-7.3-2.939-9.867-8.848-7.792-15.336a12.739,12.739,0,0,1,6.48-7.694A7.655,7.655,0,0,1,67.517,48.5,18.279,18.279,0,0,1,64.971,59.93a23.732,23.732,0,0,1-4.208,5.126,2.766,2.766,0,0,1-2.9.52Z" transform="translate(-24 58)" fill="#1C222F"></path><path d="M271.031,53.1h-4.98l-6.25,8.96L253.6,53.1h-5.13l8.717,12.249-9.015,12.543H253.2l6.5-9.322,6.465,9.322h5.131l-8.943-12.613Z" transform="translate(-153.941 43.617)" fill="#1C222F"></path><path d="M189.007,68.114H178l5.5-11.037ZM185.589,53.1h-4.173L168.662,77.89h4.4l3.1-6.168h14.648l3.068,6.168h4.43Z" transform="translate(-106.469 43.617)" fill="#1C222F"></path><path d="M317.552,74.276V66.823h15.275V63.215H317.552V56.709h18.277V53.1H313.617V77.885h22.6V74.276Z" transform="translate(-193.02 43.617)" fill="#1C222F"></path><path d="M383.242,74.281V53.1h-3.936V77.89h22.669v-3.61Z" transform="translate(-232.242 43.617)" fill="#1C222F"></path><path d="M452.412,74.023c-6.281,0-10.03-3.648-10.03-9.758,0-5.38,4.124-9.138,10.03-9.138s10.028,3.758,10.028,9.138c0,7.195-5.18,9.758-10.028,9.758m0-22.38c-8.3,0-13.877,5.283-13.877,13.144,0,8.829,7.192,12.849,13.877,12.849s13.874-4.021,13.874-12.849c0-7.862-5.575-13.144-13.874-13.144" transform="translate(-267.607 44.487)" fill="#1C222F"></path><path d="M527.088,62.346c-5.193-.473-8.346-.946-8.346-3.513,0-3.228,4.758-3.71,7.595-3.71,5.894,0,8.1,2.552,9.166,3.779l.5.568,2.874-2.334-.291-.406c-.853-1.194-4.248-5.086-12.182-5.086-7.52,0-11.661,2.716-11.661,7.647,0,5.644,6.346,6.257,11.943,6.8,4.5.435,8.748.846,8.748,3.71,0,3.1-4.373,4.2-8.116,4.2-6.881,0-9.049-2.89-10.344-4.618l-.342-.452-2.649,2.26-.391.381.365.407c2.015,2.243,5.06,5.632,13.034,5.632,9.175,0,12.444-4.035,12.444-7.809,0-6.328-6.558-6.925-12.346-7.453" transform="translate(-312.422 44.487)" fill="#1C222F"></path></g></svg>