<?xml version="1.0" encoding="UTF-8" standalone="no"?>
<!-- Created with Inkscape (http://www.inkscape.org/) -->

<svg
   xmlns:dc="http://purl.org/dc/elements/1.1/"
   xmlns:cc="http://creativecommons.org/ns#"
   xmlns:rdf="http://www.w3.org/1999/02/22-rdf-syntax-ns#"
   xmlns:svg="http://www.w3.org/2000/svg"
   xmlns="http://www.w3.org/2000/svg"
   xmlns:sodipodi="http://sodipodi.sourceforge.net/DTD/sodipodi-0.dtd"
   xmlns:inkscape="http://www.inkscape.org/namespaces/inkscape"
   version="1.1"
   width="198"
   height="42.340725"
   id="svg7838"
   inkscape:version="0.47 r22583"
   sodipodi:docname="Comptia-logo.svg">
  <metadata
     id="metadata24">
    <rdf:RDF>
      <cc:Work
         rdf:about="">
        <dc:format>image/svg+xml</dc:format>
        <dc:type
           rdf:resource="http://purl.org/dc/dcmitype/StillImage" />
      </cc:Work>
    </rdf:RDF>
  </metadata>
  <sodipodi:namedview
     pagecolor="#ffffff"
     bordercolor="#666666"
     borderopacity="1"
     objecttolerance="10"
     gridtolerance="10"
     guidetolerance="10"
     inkscape:pageopacity="0"
     inkscape:pageshadow="2"
     inkscape:window-width="640"
     inkscape:window-height="481"
     id="namedview22"
     showgrid="false"
     inkscape:zoom="2.7"
     inkscape:cx="99"
     inkscape:cy="21.67041"
     inkscape:window-x="0"
     inkscape:window-y="0"
     inkscape:window-maximized="0"
     inkscape:current-layer="svg7838" />
  <defs
     id="defs7840">
    <inkscape:perspective
       sodipodi:type="inkscape:persp3d"
       inkscape:vp_x="0 : 25 : 1"
       inkscape:vp_y="0 : 1000 : 0"
       inkscape:vp_z="200 : 25 : 1"
       inkscape:persp3d-origin="100 : 16.666667 : 1"
       id="perspective26" />
  </defs>
  <g
     transform="translate(-341.55914,-648.60298)"
     id="layer1">
    <g
       transform="matrix(5.5498251,0,0,-5.5498251,76.880766,3794.6057)"
       id="g7791">
      <g
         transform="translate(56.3042,564.2422)"
         id="g3382">
        <path
           d="m 0,0 c -0.854,0 -1.524,-0.567 -1.524,-1.298 0,-0.729 0.67,-1.291 1.524,-1.291 0.854,0 1.532,0.562 1.532,1.291 C 1.532,-0.567 0.854,0 0,0 m 0,-3.46 c -1.341,0 -2.399,0.942 -2.399,2.162 0,1.217 1.058,2.172 2.399,2.172 1.347,0 2.4,-0.955 2.4,-2.172 C 2.4,-2.518 1.347,-3.46 0,-3.46"
           id="path3384"
           style="fill:#ee2722;fill-opacity:1;fill-rule:nonzero;stroke:none" />
      </g>
      <g
         transform="translate(64.8857,560.7822)"
         id="g3386">
        <path
           d="m 0,0 c -0.485,0 -0.873,0.398 -0.873,0.886 l 0,1.802 c 0,0.431 -0.372,0.772 -0.838,0.772 -0.455,0 -0.823,-0.341 -0.823,-0.772 l 0,-2.688 c -0.482,0 -0.875,0.387 -0.875,0.871 l 0,1.817 c 0,0.431 -0.37,0.772 -0.834,0.772 -0.455,0 -0.829,-0.341 -0.829,-0.772 l 0,-1.806 C -5.072,0.398 -5.46,0 -5.945,0 l 0,2.688 c 0,0.909 0.763,1.646 1.702,1.646 0.509,0 0.962,-0.209 1.27,-0.547 0.307,0.338 0.763,0.547 1.262,0.547 C -0.765,4.334 0,3.597 0,2.688 L 0,0 z"
           id="path3388"
           style="fill:#ee2722;fill-opacity:1;fill-rule:nonzero;stroke:none" />
      </g>
      <g
         transform="translate(67.7246,560.79)"
         id="g3390">
        <path
           d="m 0,0 c -0.229,0 -0.449,0.019 -0.649,0.063 -0.453,0.126 -0.717,0.6 -0.601,1.051 0.02,0.057 0.035,0.112 0.055,0.157 l 0.01,0.01 C -0.941,1.012 -0.542,0.875 0,0.875 c 0.795,0 1.426,0.561 1.426,1.27 0,0.74 -0.631,1.319 -1.426,1.319 -0.757,0 -1.511,-0.418 -1.511,-1.337 l 0,-2.827 c 0,-0.475 -0.401,-0.854 -0.877,-0.854 l 0,3.681 c 0,1.268 1.003,2.209 2.388,2.209 0.606,0 1.176,-0.23 1.615,-0.63 C 2.049,3.303 2.295,2.743 2.295,2.145 2.295,0.942 1.288,0 0,0"
           id="path3392"
           style="fill:#ee2722;fill-opacity:1;fill-rule:nonzero;stroke:none" />
      </g>
      <g
         transform="translate(73.9473,565.9443)"
         id="g3394">
        <path
           d="m 0,0 -1.87,0 0,-5.162 -0.038,0 c -0.463,0 -0.833,0.398 -0.833,0.871 l 0,4.291 -1.87,0 c -0.472,0 -0.851,0.391 -0.851,0.865 l 6.325,0 C 0.863,0.391 0.484,0 0,0"
           id="path3396"
           style="fill:#ee2722;fill-opacity:1;fill-rule:nonzero;stroke:none" />
      </g>
      <g
         transform="translate(79.481,565.9033)"
         id="g3398">
        <path
           d="m 0,0 -1.238,-2.722 2.34,0 -1.25,2.735 L 0,0 z m 1.937,-4.576 -0.462,0.996 -3.104,0 -0.454,-1.024 C -2.3,-5.013 -2.875,-5.137 -3.313,-5.137 l 2.525,5.54 c 0.146,0.316 0.4,0.503 0.693,0.503 0.289,0 0.553,-0.187 0.697,-0.503 l 2.496,-5.471 c -0.47,-0.045 -0.981,0.095 -1.161,0.492"
           id="path3400"
           style="fill:#ee2722;fill-opacity:1;fill-rule:nonzero;stroke:none" />
      </g>
      <g
         transform="translate(52.9253,565.1802)"
         id="g3402">
        <path
           d="m 0,0 c -0.472,0.499 -1.162,0.829 -1.927,0.829 -1.352,0 -2.454,-0.983 -2.454,-2.196 0,-1.21 1.102,-2.199 2.454,-2.199 0.645,0 1.255,0.247 1.717,0.638 0.323,0.261 0.795,0.246 1.102,-0.017 -0.235,-0.366 -0.553,-0.681 -0.946,-0.929 -0.551,-0.354 -1.198,-0.535 -1.873,-0.535 -1.827,0 -3.307,1.368 -3.307,3.042 0,1.682 1.48,3.052 3.307,3.052 1.301,0 2.483,-0.713 3.005,-1.804 C 0.747,-0.337 0.281,-0.309 0,0"
           id="path3404"
           style="fill:#ee2722;fill-opacity:1;fill-rule:nonzero;stroke:none" />
      </g>
      <g
         transform="translate(83.0811,561.4883)"
         id="g3406">
        <path
           d="m 0,0 c -0.01,-0.007 -0.027,-0.017 -0.041,-0.021 0,0 0.027,-0.03 0.114,-0.137 l -0.015,-0.01 c -0.037,-0.034 -0.097,-0.027 -0.125,0.006 -0.097,0.118 -0.104,0.127 -0.104,0.127 l -0.112,0 0,0.035 c 0.008,0.039 0.041,0.076 0.085,0.076 l 0.057,0 c 0.037,0 0.066,0.008 0.086,0.018 0.014,0.005 0.016,0.018 0.016,0.037 0,0.012 0,0.047 -0.102,0.047 l -0.152,0 0,-0.284 c 0,-0.048 -0.04,-0.084 -0.09,-0.084 l -0.019,0 0,0.401 c 0,0.043 0.041,0.073 0.084,0.078 l 0.177,0 C 0.054,0.289 0.073,0.178 0.073,0.131 0.073,0.069 0.045,0.029 0,0 m -0.169,0.354 c -0.199,0 -0.365,-0.141 -0.365,-0.317 0,-0.175 0.166,-0.317 0.365,-0.317 0.2,0 0.368,0.142 0.368,0.317 0,0.176 -0.168,0.317 -0.368,0.317 m 0,-0.729 c -0.256,0 -0.46,0.185 -0.46,0.412 0,0.226 0.204,0.416 0.46,0.416 0.252,0 0.456,-0.19 0.456,-0.416 0,-0.227 -0.204,-0.412 -0.456,-0.412"
           id="path3408"
           style="fill:#ee2722;fill-opacity:1;fill-rule:nonzero;stroke:none" />
      </g>
      <g
         transform="translate(75.0854,566.8071)"
         id="g3410">
        <path
           d="m 0,0 0,-5.182 c 0,-0.464 0.404,-0.843 0.872,-0.843 l 0,5.177 C 0.872,-0.384 0.473,0 0,0"
           id="path3412"
           style="fill:#ee2722;fill-opacity:1;fill-rule:nonzero;stroke:none" />
      </g>
    </g>
  </g>
</svg>
