<svg xmlns:xlink="http://www.w3.org/1999/xlink" xmlns="http://www.w3.org/2000/svg" viewBox="0 0 408.26 98.79" width="408.26"  height="98.79" ><defs><style>.cls-1{fill:#0f69a0;}.cls-2{fill:#1d2d5c;}.cls-3{fill:#00a4e4;}.cls-4{fill:#36ac91;}.cls-5{fill:#6cb33f;}</style></defs><title>ISACA_logo_RGB</title><g id="full-rgb"><path id="fullLogo" class="cls-1" d="M10.52,57.06A8.88,8.88,0,1,1,25.3,53.34a.54.54,0,0,0,.13.54l4.38,4.38a.55.55,0,0,0,.88-.12,15.74,15.74,0,1,0-6.53,6.53.55.55,0,0,0,.13-.88L19.9,59.41a.53.53,0,0,0-.54-.13A8.86,8.86,0,0,1,10.52,57.06Z" transform="translate(-1.06 -1.39)" fill="#0F69A0"></path><path id="fullLogo-2" data-name="fullLogo" class="cls-2" d="M10.53,78.15a8.88,8.88,0,1,1,3.72,14.78.54.54,0,0,0-.54.13L9.33,97.44a.56.56,0,0,0,.12.89,15.76,15.76,0,1,0-6.53-6.54.55.55,0,0,0,.88.13l4.38-4.38A.53.53,0,0,0,8.31,87,8.88,8.88,0,0,1,10.53,78.15Z" transform="translate(-1.06 -1.39)" fill="#1D2D5C"></path><path id="fullLogo-3" data-name="fullLogo" class="cls-1" d="M50.68,93.32A8.89,8.89,0,1,1,58.5,80.23a.56.56,0,0,0,.48.3h6.2a.56.56,0,0,0,.53-.72,15.74,15.74,0,1,0,0,9.24.56.56,0,0,0-.54-.71H59a.55.55,0,0,0-.48.29A8.87,8.87,0,0,1,50.68,93.32Z" transform="translate(-1.06 -1.39)" fill="#0F69A0"></path><path id="fullLogo-4" data-name="fullLogo" class="cls-3" d="M41.8,50.78A8.88,8.88,0,1,1,54.88,58.6a.53.53,0,0,0-.29.48v6.2a.55.55,0,0,0,.71.53,15.75,15.75,0,1,0-9.23,0,.55.55,0,0,0,.7-.54V59.08a.54.54,0,0,0-.29-.48A8.89,8.89,0,0,1,41.8,50.78Z" transform="translate(-1.06 -1.39)" fill="#00A4E4"></path><path id="fullLogo-5" data-name="fullLogo" class="cls-3" d="M25.69,17.13A8.89,8.89,0,1,1,12.6,9.3a.52.52,0,0,0,.29-.47V2.63a.55.55,0,0,0-.7-.54,15.74,15.74,0,1,0,9.23,0,.56.56,0,0,0-.71.54v6.2a.55.55,0,0,0,.29.48A8.85,8.85,0,0,1,25.69,17.13Z" transform="translate(-1.06 -1.39)" fill="#00A4E4"></path><path id="fullLogo-6" data-name="fullLogo" class="cls-3" d="M90.85,78.15a8.89,8.89,0,1,1-14.79,3.72.52.52,0,0,0-.13-.54l-4.38-4.39a.56.56,0,0,0-.88.12,15.75,15.75,0,1,0,6.53-6.52.55.55,0,0,0-.12.88l4.38,4.38a.54.54,0,0,0,.54.13A8.88,8.88,0,0,1,90.85,78.15Z" transform="translate(-1.06 -1.39)" fill="#00A4E4"></path><path id="fullLogo-7" data-name="fullLogo" class="cls-4" d="M90.85,57.06a8.89,8.89,0,1,1-3.73-14.78.55.55,0,0,0,.55-.13l4.38-4.38a.57.57,0,0,0-.12-.89,15.75,15.75,0,1,0,6.53,6.54.56.56,0,0,0-.89-.13l-4.38,4.38a.56.56,0,0,0-.13.55A8.87,8.87,0,0,1,90.85,57.06Z" transform="translate(-1.06 -1.39)" fill="#36AC91"></path><path id="fullLogo-8" data-name="fullLogo" class="cls-5" d="M84.74,26a8.88,8.88,0,1,1,7.82-13.08.55.55,0,0,0,.48.29h6.19a.56.56,0,0,0,.54-.71,15.75,15.75,0,1,0,0,9.23.56.56,0,0,0-.54-.71H93a.57.57,0,0,0-.48.29A8.87,8.87,0,0,1,84.74,26Z" transform="translate(-1.06 -1.39)" fill="#6CB33F"></path><path id="fullLogo-9" data-name="fullLogo" class="cls-4" d="M44.41,10.84a8.89,8.89,0,1,1,3.72,14.78.54.54,0,0,0-.54.14l-4.38,4.38a.55.55,0,0,0,.12.88,15.74,15.74,0,1,0-6.53-6.53.56.56,0,0,0,.88.12l4.38-4.38a.54.54,0,0,0,.14-.54A8.87,8.87,0,0,1,44.41,10.84Z" transform="translate(-1.06 -1.39)" fill="#36AC91"></path><path id="fullLogo-10" data-name="fullLogo" class="cls-2" d="M132.84,19.92a1.83,1.83,0,0,1,1.76-1.77h8.65A1.83,1.83,0,0,1,145,19.92V81.45a1.83,1.83,0,0,1-1.77,1.77H134.6a1.83,1.83,0,0,1-1.76-1.77Z" transform="translate(-1.06 -1.39)" fill="#1D2D5C"></path><path id="fullLogo-11" data-name="fullLogo" class="cls-2" d="M159.52,74.11l3.34-5.76A2.16,2.16,0,0,1,166,67.7c.47.28,8,5.76,14,5.76,4.83,0,8.46-3.16,8.46-7.16,0-4.74-4-8-11.81-11.15C168,51.61,159.24,46,159.24,35.07c0-8.27,6.13-17.85,20.91-17.85a32.73,32.73,0,0,1,18.59,6.23,2.31,2.31,0,0,1,.56,3.07l-3.53,5.3c-.74,1.11-2.14,1.85-3.25,1.11-.75-.46-7.81-5.11-12.92-5.11-5.3,0-8.19,3.53-8.19,6.5,0,4.37,3.44,7.35,11,10.42,9,3.62,19.43,9,19.43,21,0,9.58-8.27,18.41-21.38,18.41-11.71,0-18.59-5.48-20.45-7.25C159.14,76.06,158.68,75.6,159.52,74.11Z" transform="translate(-1.06 -1.39)" fill="#1D2D5C"></path><path id="fullLogo-12" data-name="fullLogo" class="cls-2" d="M206.15,80.8l28.91-62.56a1.68,1.68,0,0,1,1.58-1h.93a1.59,1.59,0,0,1,1.58,1L267.78,80.8a1.65,1.65,0,0,1-1.58,2.42h-8.09a2.68,2.68,0,0,1-2.7-1.86l-4.55-10H223.07l-4.56,10a2.8,2.8,0,0,1-2.7,1.86h-8.08A1.64,1.64,0,0,1,206.15,80.8ZM246.3,61,237,40.55h-.28L227.62,61Z" transform="translate(-1.06 -1.39)" fill="#1D2D5C"></path><path id="fullLogo-13" data-name="fullLogo" class="cls-2" d="M305,17.22a31.47,31.47,0,0,1,22.49,8.65,1.72,1.72,0,0,1,.09,2.6l-5.67,5.85a1.48,1.48,0,0,1-2.32,0,22,22,0,0,0-14.32-5.48c-11.89,0-20.72,10-20.72,21.66S293.46,72,305.36,72a22.31,22.31,0,0,0,14.22-5.3,1.72,1.72,0,0,1,2.32,0l5.77,6a1.77,1.77,0,0,1-.1,2.51,31.87,31.87,0,0,1-22.58,9,33.47,33.47,0,1,1,0-66.93Z" transform="translate(-1.06 -1.39)" fill="#1D2D5C"></path><path id="fullLogo-14" data-name="fullLogo" class="cls-2" d="M332.69,80.8,361.6,18.24a1.68,1.68,0,0,1,1.58-1h.93a1.59,1.59,0,0,1,1.58,1L394.32,80.8a1.64,1.64,0,0,1-1.58,2.42h-8.09A2.67,2.67,0,0,1,382,81.36l-4.56-10H349.61l-4.56,10a2.8,2.8,0,0,1-2.69,1.86h-8.09A1.64,1.64,0,0,1,332.69,80.8ZM372.85,61l-9.3-20.45h-.28L354.16,61Z" transform="translate(-1.06 -1.39)" fill="#1D2D5C"></path><path id="fullLogo-15" data-name="fullLogo" class="cls-2" d="M403.81,72.91a5.5,5.5,0,1,1-5.5,5.51A5.53,5.53,0,0,1,403.81,72.91Zm0,10.09a4.58,4.58,0,1,0-4.58-4.58A4.56,4.56,0,0,0,403.81,83Zm-1.91-7.11a.29.29,0,0,1,.29-.29h2.17a1.73,1.73,0,0,1,1.88,1.72A1.62,1.62,0,0,1,405,79c.31.59.61,1.21.92,1.8a.29.29,0,0,1-.26.42h-.52c-.12,0-.23-.13-.28-.22L404,79.08h-1.14v1.83a.29.29,0,0,1-.29.3h-.39a.29.29,0,0,1-.29-.3Zm2.46,2.3a.86.86,0,0,0,.92-.87.84.84,0,0,0-.92-.87h-1.5v1.74Z" transform="translate(-1.06 -1.39)" fill="#1D2D5C"></path></g></svg>